<svg xmlns="http://www.w3.org/2000/svg" width="600" height="400" viewBox="0 0 600 400">
  <defs>
    <linearGradient id="bgGrad_banarasi-silk-brocade" x1="0%" y1="0%" x2="100%" y2="100%">
      <stop offset="0%" stop-color="#1E3A8A" />
      <stop offset="50%" stop-color="#0F172A" />
      <stop offset="100%" stop-color="#1E293B" />
    </linearGradient>
    <radialGradient id="spotlight_banarasi-silk-brocade" cx="50%" cy="45%" r="55%">
      <stop offset="0%" stop-color="#3B82F6" stop-opacity="0.45" />
      <stop offset="60%" stop-color="#3B82F6" stop-opacity="0.1" />
      <stop offset="100%" stop-color="#000000" stop-opacity="0" />
    </radialGradient>
    <radialGradient id="floorShadow_banarasi-silk-brocade" cx="50%" cy="50%" r="50%">
      <stop offset="0%" stop-color="rgba(0,0,0,0.6)" />
      <stop offset="100%" stop-color="rgba(0,0,0,0)" />
    </radialGradient>
  </defs>

  <rect width="100%" height="100%" fill="url(#bgGrad_banarasi-silk-brocade)"/>
  <rect width="100%" height="100%" fill="url(#spotlight_banarasi-silk-brocade)"/>

  <circle cx="300" cy="180" r="140" fill="none" stroke="#F59E0B" stroke-opacity="0.12" stroke-width="1.5" />
  <circle cx="300" cy="180" r="115" fill="none" stroke="#F59E0B" stroke-opacity="0.08" stroke-width="1" stroke-dasharray="6,6" />

  <ellipse cx="300" cy="285" rx="140" ry="25" fill="url(#floorShadow_banarasi-silk-brocade)" />

  <g transform="translate(300, 180)">
    
        <rect x="-85" y="-55" width="170" height="115" rx="10" fill="#991B1B" filter="drop-shadow(0 15px 25px rgba(0,0,0,0.5))" />
        <rect x="-75" y="-45" width="150" height="95" rx="6" fill="#B91C1C" />
        <g stroke="#FDE047" stroke-width="2" fill="none" opacity="0.9">
          <circle cx="0" cy="0" r="28" fill="#CA8A04" fill-opacity="0.3" />
          <circle cx="-45" cy="0" r="20" />
          <circle cx="45" cy="0" r="20" />
          <path d="M-60,-35 Q0,-10 60,-35" />
          <path d="M-60,35 Q0,10 60,35" />
        </g>
        <circle cx="0" cy="0" r="8" fill="#FEF08A" />
      
  </g>

  <rect x="0" y="325" width="600" height="75" fill="rgba(15, 23, 42, 0.75)" />
  <rect x="0" y="325" width="600" height="1" fill="rgba(255, 255, 255, 0.12)" />

  <text x="32" y="358" fill="#F9F6F0" font-family="'Playfair Display', Georgia, serif" font-size="20" font-weight="700">
    Banarasi Silk Brocade
  </text>
  
  <text x="32" y="382" fill="rgba(249, 246, 240, 0.7)" font-family="'Plus Jakarta Sans', sans-serif" font-size="12" font-weight="500">
    Uttar Pradesh • Registered Geographical Indication of India
  </text>

  <rect x="0" y="396" width="600" height="4" fill="#F59E0B" />
</svg>