<svg xmlns="http://www.w3.org/2000/svg" width="600" height="400" viewBox="0 0 600 400">
  <defs>
    <linearGradient id="bgGrad_muzaffarpur-shahi-litchi" x1="0%" y1="0%" x2="100%" y2="100%">
      <stop offset="0%" stop-color="#14532D" />
      <stop offset="50%" stop-color="#052E16" />
      <stop offset="100%" stop-color="#14532D" />
    </linearGradient>
    <radialGradient id="spotlight_muzaffarpur-shahi-litchi" cx="50%" cy="45%" r="55%">
      <stop offset="0%" stop-color="#22C55E" stop-opacity="0.45" />
      <stop offset="60%" stop-color="#22C55E" stop-opacity="0.1" />
      <stop offset="100%" stop-color="#000000" stop-opacity="0" />
    </radialGradient>
    <radialGradient id="floorShadow_muzaffarpur-shahi-litchi" cx="50%" cy="50%" r="50%">
      <stop offset="0%" stop-color="rgba(0,0,0,0.6)" />
      <stop offset="100%" stop-color="rgba(0,0,0,0)" />
    </radialGradient>
  </defs>

  <rect width="100%" height="100%" fill="url(#bgGrad_muzaffarpur-shahi-litchi)"/>
  <rect width="100%" height="100%" fill="url(#spotlight_muzaffarpur-shahi-litchi)"/>

  <circle cx="300" cy="180" r="140" fill="none" stroke="#FACC15" stroke-opacity="0.12" stroke-width="1.5" />
  <circle cx="300" cy="180" r="115" fill="none" stroke="#FACC15" stroke-opacity="0.08" stroke-width="1" stroke-dasharray="6,6" />

  <ellipse cx="300" cy="285" rx="140" ry="25" fill="url(#floorShadow_muzaffarpur-shahi-litchi)" />

  <g transform="translate(300, 180)">
    
        <g transform="translate(-25, 10)">
          <circle cx="0" cy="0" r="38" fill="#DC2626" filter="drop-shadow(0 10px 15px rgba(0,0,0,0.4))" />
          <circle cx="-5" cy="-5" r="30" fill="#EF4444" />
          <circle cx="20.04999602208916" cy="-13.144795714657253" r="2.5" fill="#991B1B" /><circle cx="20.030357197167888" cy="-4.704548302827423" r="2.5" fill="#991B1B" /><circle cx="-7.454777480762143" cy="22.01022757804906" r="2.5" fill="#991B1B" /><circle cx="13.311950256949181" cy="-16.332919741081895" r="2.5" fill="#991B1B" /><circle cx="13.45955626615601" cy="-0.45386960163240786" r="2.5" fill="#991B1B" /><circle cx="9.564500013834003" cy="16.248409642933833" r="2.5" fill="#991B1B" /><circle cx="7.7208714588458065" cy="16.332226411319354" r="2.5" fill="#991B1B" /><circle cx="-4.102985195122662" cy="15.689798493458149" r="2.5" fill="#991B1B" /><circle cx="20.9983077540307" cy="-17.531426684065476" r="2.5" fill="#991B1B" /><circle cx="-4.343550241705579" cy="-17.194422152467745" r="2.5" fill="#991B1B" /><circle cx="19.36652321727225" cy="-7.3899705202608175" r="2.5" fill="#991B1B" /><circle cx="10.376908796271582" cy="8.38619070956779" r="2.5" fill="#991B1B" /><circle cx="-8.830586584624442" cy="-4.949214721240805" r="2.5" fill="#991B1B" /><circle cx="-13.604512213393978" cy="13.16169945692343" r="2.5" fill="#991B1B" /><circle cx="0.6006242790445376" cy="-5.487423270589848" r="2.5" fill="#991B1B" /><circle cx="-3.6503816829418283" cy="-11.48805566121215" r="2.5" fill="#991B1B" />
        </g>
        <g transform="translate(35, 15)">
          <circle cx="0" cy="0" r="34" fill="#F8FAFC" stroke="#E2E8F0" stroke-width="2" filter="drop-shadow(0 8px 12px rgba(0,0,0,0.3))" />
          <ellipse cx="-5" cy="-5" rx="10" ry="16" fill="#3B0764" />
          <path d="M-25,20 Q0,40 25,20" fill="#DC2626" stroke="#991B1B" stroke-width="2" />
        </g>
      
  </g>

  <rect x="0" y="325" width="600" height="75" fill="rgba(15, 23, 42, 0.75)" />
  <rect x="0" y="325" width="600" height="1" fill="rgba(255, 255, 255, 0.12)" />

  <text x="32" y="358" fill="#F9F6F0" font-family="'Playfair Display', Georgia, serif" font-size="20" font-weight="700">
    Muzaffarpur Shahi Litchi
  </text>
  
  <text x="32" y="382" fill="rgba(249, 246, 240, 0.7)" font-family="'Plus Jakarta Sans', sans-serif" font-size="12" font-weight="500">
    Bihar • Registered Geographical Indication of India
  </text>

  <rect x="0" y="396" width="600" height="4" fill="#FACC15" />
</svg>