<svg xmlns="http://www.w3.org/2000/svg" width="600" height="400" viewBox="0 0 600 400">
  <defs>
    <linearGradient id="bgGrad_sikkim-large-cardamom" x1="0%" y1="0%" x2="100%" y2="100%">
      <stop offset="0%" stop-color="#14532D" />
      <stop offset="50%" stop-color="#052E16" />
      <stop offset="100%" stop-color="#14532D" />
    </linearGradient>
    <radialGradient id="spotlight_sikkim-large-cardamom" cx="50%" cy="45%" r="55%">
      <stop offset="0%" stop-color="#22C55E" stop-opacity="0.45" />
      <stop offset="60%" stop-color="#22C55E" stop-opacity="0.1" />
      <stop offset="100%" stop-color="#000000" stop-opacity="0" />
    </radialGradient>
    <radialGradient id="floorShadow_sikkim-large-cardamom" cx="50%" cy="50%" r="50%">
      <stop offset="0%" stop-color="rgba(0,0,0,0.6)" />
      <stop offset="100%" stop-color="rgba(0,0,0,0)" />
    </radialGradient>
  </defs>

  <rect width="100%" height="100%" fill="url(#bgGrad_sikkim-large-cardamom)"/>
  <rect width="100%" height="100%" fill="url(#spotlight_sikkim-large-cardamom)"/>

  <circle cx="300" cy="180" r="140" fill="none" stroke="#FACC15" stroke-opacity="0.12" stroke-width="1.5" />
  <circle cx="300" cy="180" r="115" fill="none" stroke="#FACC15" stroke-opacity="0.08" stroke-width="1" stroke-dasharray="6,6" />

  <ellipse cx="300" cy="285" rx="140" ry="25" fill="url(#floorShadow_sikkim-large-cardamom)" />

  <g transform="translate(300, 180)">
    
        <g transform="translate(-20, 10) rotate(-35)">
          <ellipse cx="0" cy="0" rx="22" ry="42" fill="#581C87" stroke="#3B0764" stroke-width="2" filter="drop-shadow(0 10px 15px rgba(0,0,0,0.5))" />
          <ellipse cx="-5" cy="0" rx="14" ry="38" fill="#7E22CE" />
          <line x1="0" y1="-38" x2="0" y2="38" stroke="#3B0764" stroke-width="2.5" />
          <line x1="-10" y1="-30" x2="-10" y2="30" stroke="#3B0764" stroke-width="1.8" />
          <line x1="10" y1="-30" x2="10" y2="30" stroke="#3B0764" stroke-width="1.8" />
        </g>
        <g transform="translate(30, 20) rotate(30)">
          <ellipse cx="0" cy="0" rx="18" ry="35" fill="#6B21A8" stroke="#4C1D95" stroke-width="2" filter="drop-shadow(0 8px 12px rgba(0,0,0,0.4))" />
          <line x1="0" y1="-32" x2="0" y2="32" stroke="#4C1D95" stroke-width="2" />
        </g>
      
  </g>

  <rect x="0" y="325" width="600" height="75" fill="rgba(15, 23, 42, 0.75)" />
  <rect x="0" y="325" width="600" height="1" fill="rgba(255, 255, 255, 0.12)" />

  <text x="32" y="358" fill="#F9F6F0" font-family="'Playfair Display', Georgia, serif" font-size="20" font-weight="700">
    Sikkim Large Cardamom
  </text>
  
  <text x="32" y="382" fill="rgba(249, 246, 240, 0.7)" font-family="'Plus Jakarta Sans', sans-serif" font-size="12" font-weight="500">
    Sikkim • Registered Geographical Indication of India
  </text>

  <rect x="0" y="396" width="600" height="4" fill="#FACC15" />
</svg>