<svg xmlns="http://www.w3.org/2000/svg" width="600" height="400" viewBox="0 0 600 400" fill="none">
  <!-- Standalone Physical Product Hero Artwork (Transparent Background) -->
  <g transform="translate(300, 180)">
    
        <g transform="translate(0, 20)">
          <ellipse cx="0" cy="15" rx="42" ry="58" fill="#D97706" filter="drop-shadow(0 15px 25px rgba(0,0,0,0.5))" />
          <ellipse cx="0" cy="15" rx="38" ry="54" fill="#F59E0B" />
          <g stroke="#B45309" stroke-width="2" fill="#FBBF24">
            <polygon points="-24,-28 -14,-20 -24,-12 -34,-20" /><polygon points="0,-28 10,-20 0,-12 -10,-20" /><polygon points="24,-28 34,-20 24,-12 14,-20" /><polygon points="-24,-10 -14,-2 -24,6 -34,-2" /><polygon points="0,-10 10,-2 0,6 -10,-2" /><polygon points="24,-10 34,-2 24,6 14,-2" /><polygon points="-24,8 -14,16 -24,24 -34,16" /><polygon points="0,8 10,16 0,24 -10,16" /><polygon points="24,8 34,16 24,24 14,16" /><polygon points="-24,26 -14,34 -24,42 -34,34" /><polygon points="0,26 10,34 0,42 -10,34" /><polygon points="24,26 34,34 24,42 14,34" />
          </g>
        </g>
        <g transform="translate(0, -35)" fill="#15803D" stroke="#16A34A" stroke-width="2">
          <polygon points="0,-45 -12,0 0,-15 12,0" />
          <polygon points="-25,-35 -8,0 -15,-15" />
          <polygon points="25,-35 8,0 15,-15" />
        </g>
      
  </g>
</svg>